<svg xmlns="http://www.w3.org/2000/svg" viewBox="0 0 200 200"><rect width="200" height="200" fill="#B03A2E" rx="20"/><circle cx="70" cy="70" r="20" fill="white"/><circle cx="130" cy="70" r="20" fill="white"/><rect x="70" y="57" width="60" height="26" fill="white"/><rect x="85" y="63" width="30" height="14" fill="#1ABC9C"/><text x="100" y="156" text-anchor="middle" font-family="Arial, sans-serif" font-size="14" font-weight="bold" fill="white">Sport &amp;</text><text x="100" y="174" text-anchor="middle" font-family="Arial, sans-serif" font-size="14" font-weight="bold" fill="white">Santé</text>
    <!-- Haltère -->
    <line x1="45" y1="70" x2="85" y2="70" stroke="white" stroke-width="6" stroke-linecap="round"/>
    <rect x="40" y="58" width="12" height="24" rx="3" fill="white"/>
    <rect x="78" y="58" width="12" height="24" rx="3" fill="white"/>
    <!-- Cœur -->
    <path d="M 145 55 C 135 45 125 55 145 75 C 165 55 155 45 145 55" fill="white" opacity="0.8"/>
    <!-- Ligne ECG -->
    <polyline points="125,80 132,80 135,72 138,88 141,80 150,80" fill="none" stroke="white" stroke-width="2"/>
</svg>