<svg xmlns="http://www.w3.org/2000/svg" viewBox="0 0 200 200"><rect width="200" height="200" fill="#5499C7" rx="20"/><path d="M55 75 Q100 35 145 75 Q100 115 55 75" fill="white"/><circle cx="100" cy="75" r="12" fill="#3498DB"/><text x="100" y="156" text-anchor="middle" font-family="Arial, sans-serif" font-size="14" font-weight="bold" fill="white">Robinet</text><text x="100" y="174" text-anchor="middle" font-family="Arial, sans-serif" font-size="14" font-weight="bold" fill="white">Pro</text>
    <!-- Robinet -->
    <path d="M 45 55 L 45 75 Q 45 85 55 85 L 65 85" fill="none" stroke="white" stroke-width="5" stroke-linecap="round"/>
    <rect x="40" y="50" width="10" height="12" fill="white"/>
    <circle cx="70" cy="85" r="4" fill="white"/>
    <!-- Gouttes -->
    <path d="M 75 92 Q 75 100 80 100 Q 85 100 85 92 Q 80 82 75 92" fill="white" opacity="0.7"/>
    <path d="M 90 88 Q 90 95 95 95 Q 100 95 100 88 Q 95 80 90 88" fill="white" opacity="0.5"/>
    <!-- Tuyau -->
    <rect x="130" y="60" width="30" height="8" fill="white"/>
    <rect x="130" y="72" width="30" height="8" fill="white"/>
    <line x1="140" y1="60" x2="140" y2="80" stroke="#C0392B" stroke-width="2"/>
</svg>