<svg xmlns="http://www.w3.org/2000/svg" viewBox="0 0 200 200"><rect width="200" height="200" fill="#5B2C6F" rx="20"/><circle cx="100" cy="60" r="30" fill="white"/><rect x="75" y="85" width="50" height="35" rx="4" fill="white"/><circle cx="100" cy="55" r="12" fill="#9B59B6"/><rect x="87" y="95" width="26" height="20" fill="#9B59B6"/><text x="100" y="156" text-anchor="middle" font-family="Arial, sans-serif" font-size="14" font-weight="bold" fill="white">Vente</text><text x="100" y="174" text-anchor="middle" font-family="Arial, sans-serif" font-size="14" font-weight="bold" fill="white">Directe</text>
    <!-- Caddie stylisé -->
    <polyline points="50,55 55,55 60,75 75,75" fill="none" stroke="white" stroke-width="3" stroke-linecap="round" stroke-linejoin="round"/>
    <circle cx="62" cy="82" r="5" fill="none" stroke="white" stroke-width="2"/>
    <circle cx="75" cy="82" r="5" fill="none" stroke="white" stroke-width="2"/>
    <!-- Sac shopping -->
    <path d="M 125 55 L 125 85 L 155 85 L 155 55 Z" fill="none" stroke="white" stroke-width="3"/>
    <path d="M 132 55 L 132 48 Q 132 42 140 42 Q 148 42 148 48 L 148 55" fill="none" stroke="white" stroke-width="2"/>
    <!-- Étiquette prix -->
    <rect x="160" y="65" width="15" height="20" fill="white" transform="rotate(15 167 75)"/>
    <circle cx="167" cy="70" r="2" fill="#C0392B" transform="rotate(15 167 75)"/>
</svg>