<svg xmlns="http://www.w3.org/2000/svg" width="24" height="24" viewBox="0 0 24 24" shape-rendering="crispEdges">
  <!-- Lune croissant 8-bit améliorée -->
  <rect x="9" y="2" width="6" height="2" fill="#BDC3C7"/>
  <rect x="7" y="4" width="2" height="2" fill="#BDC3C7"/>
  <rect x="15" y="4" width="4" height="2" fill="#BDC3C7"/>
  <rect x="5" y="6" width="2" height="4" fill="#BDC3C7"/>
  <rect x="17" y="6" width="4" height="4" fill="#BDC3C7"/>
  <rect x="5" y="10" width="2" height="4" fill="#BDC3C7"/>
  <rect x="19" y="10" width="2" height="4" fill="#BDC3C7"/>
  <rect x="5" y="14" width="2" height="4" fill="#BDC3C7"/>
  <rect x="17" y="14" width="4" height="2" fill="#BDC3C7"/>
  <rect x="7" y="18" width="2" height="2" fill="#BDC3C7"/>
  <rect x="15" y="16" width="2" height="4" fill="#BDC3C7"/>
  <rect x="9" y="20" width="6" height="2" fill="#BDC3C7"/>
  <!-- Intérieur sombre -->
  <rect x="9" y="6" width="6" height="12" fill="#95A5A6"/>
  <rect x="8" y="8" width="1" height="8" fill="#95A5A6"/>
  <!-- Cratère -->
  <rect x="11" y="10" width="2" height="2" fill="#7F8C8D"/>
</svg>