<svg xmlns="http://www.w3.org/2000/svg" width="24" height="24" viewBox="0 0 24 24" shape-rendering="crispEdges">
  <!-- Point d'information 8-bit amélioré -->
  <!-- Cercle extérieur -->
  <rect x="8" y="2" width="8" height="2" fill="#2980B9"/>
  <rect x="6" y="4" width="2" height="2" fill="#2980B9"/>
  <rect x="16" y="4" width="2" height="2" fill="#2980B9"/>
  <rect x="4" y="6" width="2" height="4" fill="#2980B9"/>
  <rect x="18" y="6" width="2" height="4" fill="#2980B9"/>
  <rect x="2" y="10" width="2" height="4" fill="#2980B9"/>
  <rect x="20" y="10" width="2" height="4" fill="#2980B9"/>
  <rect x="4" y="14" width="2" height="4" fill="#2980B9"/>
  <rect x="18" y="14" width="2" height="4" fill="#2980B9"/>
  <rect x="6" y="18" width="2" height="2" fill="#2980B9"/>
  <rect x="16" y="18" width="2" height="2" fill="#2980B9"/>
  <rect x="8" y="20" width="8" height="2" fill="#2980B9"/>
  <!-- Fond intérieur -->
  <rect x="7" y="5" width="10" height="12" fill="#3498DB"/>
  <rect x="6" y="7" width="2" height="8" fill="#3498DB"/>
  <rect x="16" y="7" width="2" height="8" fill="#3498DB"/>
  <!-- Point en haut -->
  <rect x="10" y="6" width="4" height="4" fill="white"/>
  <!-- Barre verticale du i -->
  <rect x="10" y="12" width="4" height="6" fill="white"/>
</svg>